# xmcd CD database file
#
# Track frame offsets:
#	150
#	13180
#	34733
#	51984
#	60177
#	75759
#	94497
#	114213
#	131916
#	149241
#	175010
#	186549
#	199584
#	223863
#	239635
#	260094
#
# Disc length: 3665 seconds
#
# Revision: 0
# Processed by: cddbd v1.4PL0 Copyright (c) Steve Scherf et al.
# Submitted via: CDex 1.50beta8
#
DISCID=f10e4f10
DTITLE=Cory DeMille - 16 Songs
DYEAR=2002
DGENRE=Blues
TTITLE0=makes me feel this way
TTITLE1=do u want 2 go 2 heaven
TTITLE2=fool that I am
TTITLE3=haven't seen my baby
TTITLE4=sunny day in september
TTITLE5=would you save me
TTITLE6=three days in october
TTITLE7=wonderland
TTITLE8=belly full of blues
TTITLE9=used to make you happy
TTITLE10=do you still think about me
TTITLE11=it must suck being you
TTITLE12=shadows in the rain
TTITLE13=drinking whiskey
TTITLE14=broken hearted savior
TTITLE15=miracles
EXTD=YEAR: 2002
EXTT0=
EXTT1=
EXTT2=
EXTT3=
EXTT4=
EXTT5=
EXTT6=
EXTT7=
EXTT8=
EXTT9=
EXTT10=
EXTT11=
EXTT12=
EXTT13=
EXTT14=
EXTT15=
PLAYORDER=
